<svg viewBox="0 0 217.51 100" xmlns="http://www.w3.org/2000/svg">
  <!-- Dense cluster top-right -->
  <circle cx="72" cy="16" r="3" fill="black"/>
  <circle cx="84" cy="16" r="3" fill="black"/>
  <circle cx="72" cy="28" r="3" fill="black"/>
  <circle cx="84" cy="28" r="3" fill="black"/>
  <circle cx="60" cy="28" r="2.5" fill="black" opacity="0.7"/>
  <circle cx="72" cy="40" r="2.5" fill="black" opacity="0.7"/>
  <circle cx="84" cy="40" r="2.5" fill="black" opacity="0.7"/>
  <circle cx="50" cy="42" r="2" fill="black" opacity="0.4"/>
  <circle cx="58" cy="54" r="1.4" fill="black" opacity="0.2"/>
  <circle cx="18" cy="54" r="2.2" fill="black" opacity="0.55"/>
  <circle cx="34" cy="48" r="1.8" fill="black" opacity="0.35"/>
  <circle cx="26" cy="68" r="2.5" fill="black" opacity="0.65"/>
  <circle cx="44" cy="62" r="1.6" fill="black" opacity="0.3"/>
  <circle cx="16" cy="80" r="2.8" fill="black" opacity="0.7"/>
  <circle cx="38" cy="80" r="2" fill="black" opacity="0.4"/>
  <circle cx="54" cy="74" r="1.5" fill="black" opacity="0.25"/>
  <g transform="translate(110.00,12.96)">
    <path d="M3.515625 26.4375V25.1484375Q3.515625 19.9453125 5.73046875 17.390625Q7.9453125 14.8359375 11.0390625 14.8359375Q12.375 14.8359375 14.203125 15.2578125V19.4296875Q13.171875 19.0546875 12.234375 19.0546875Q9.7265625 19.0546875 8.75390625 20.390625Q7.78125 21.7265625 7.78125 25.1484375V26.4375H11.625V30.28125H7.78125V48.0H3.515625V30.28125H0.421875V26.4375Z M25.3359375 26.390625Q30.2578125 26.390625 33.515625 29.56640625Q36.7734375 32.7421875 36.7734375 37.546875Q36.7734375 42.2109375 33.46875 45.29296875Q30.1640625 48.375 25.1484375 48.375Q20.296875 48.375 17.0390625 45.24609375Q13.78125 42.1171875 13.78125 37.4296875Q13.78125 32.6953125 17.07421875 29.54296875Q20.3671875 26.390625 25.3359375 26.390625ZM25.1015625 30.234375Q22.03125 30.234375 20.0625 32.25Q18.09375 34.265625 18.09375 37.3828125Q18.09375 40.4765625 20.109375 42.43359375Q22.125 44.390625 25.2890625 44.390625Q28.4296875 44.390625 30.43359375 42.41015625Q32.4375 40.4296875 32.4375 37.3359375Q32.4375 34.265625 30.3515625 32.25Q28.265625 30.234375 25.1015625 30.234375Z M57.6796875 42.9609375V47.1796875Q54.46875 48.375 51.3984375 48.375Q46.3359375 48.375 43.32421875 45.375Q40.3125 42.375 40.3125 37.3359375Q40.3125 32.25 43.2421875 29.1328125Q46.171875 26.015625 50.953125 26.015625Q52.6171875 26.015625 53.94140625 26.33203125Q55.265625 26.6484375 57.2109375 27.515625V32.0625Q53.9765625 30.0 51.2109375 30.0Q48.328125 30.0 46.4765625 32.02734375Q44.625 34.0546875 44.625 37.1953125Q44.625 40.5 46.62890625 42.4453125Q48.6328125 44.390625 52.03125 44.390625Q54.4921875 44.390625 57.6796875 42.9609375Z M76.265625 48.0V45.2578125Q74.90625 46.734375 73.16015625 47.5546875Q71.4140625 48.375 69.6796875 48.375Q67.640625 48.375 65.91796875 47.35546875Q64.1953125 46.3359375 63.31640625 44.58984375Q62.4375 42.84375 62.4375 38.7890625V26.4375H66.703125V38.7421875Q66.703125 42.140625 67.67578125 43.48828125Q68.6484375 44.8359375 71.0859375 44.8359375Q74.1328125 44.8359375 76.265625 41.859375V26.4375H80.53125V48.0Z M101.4140625 26.4375H106.875L97.9921875 37.0546875L107.5078125 48.0H102.046875L95.2734375 40.265625L88.875 48.0H83.5078125L92.578125 37.0546875L83.5078125 26.4375H88.875L95.2734375 33.84375Z" fill="black"/>
  </g>
</svg>